<?xml version="1.0" encoding="UTF-8"?>
<svg version="1.1" xmlns="http://www.w3.org/2000/svg" width="284" height="283">
<path d="M0 0 C93.72 0 187.44 0 284 0 C284 93.39 284 186.78 284 283 C190.28 283 96.56 283 0 283 C0 189.61 0 96.22 0 0 Z " fill="#249EFE" transform="translate(0,0)"/>
<path d="M0 0 C0.71707382 -0.00367669 1.43414765 -0.00735338 2.17295098 -0.01114148 C4.55234026 -0.02206858 6.93168572 -0.02600323 9.31109619 -0.02983093 C11.02677546 -0.03610374 12.7424534 -0.04275126 14.45812988 -0.04974365 C20.07089306 -0.07068411 25.68365621 -0.08113466 31.29644775 -0.09111023 C33.23525252 -0.09516113 35.17405715 -0.09927815 37.11286163 -0.10346031 C46.22180409 -0.12248769 55.33073855 -0.13672547 64.43969703 -0.14507228 C74.92844597 -0.15484448 85.41698388 -0.18117393 95.90565848 -0.22157317 C104.03163188 -0.25179069 112.15754493 -0.26654637 120.28357339 -0.26985329 C125.12859509 -0.2721967 129.97339068 -0.28106507 134.81835175 -0.30631447 C139.37883529 -0.3297001 143.93894547 -0.33378653 148.49947357 -0.32355309 C150.16506192 -0.32306021 151.83066933 -0.3293067 153.49620056 -0.34310913 C172.13358459 -0.48881411 186.41136294 5.18853629 199.93707275 18.08467102 C213.24603925 32.2009027 216.84378471 48.99107266 217.02740479 67.81025696 C217.05037048 69.44114491 217.0911621 71.07188684 217.15045166 72.70185852 C217.66475731 86.9070381 214.60810296 96.86110325 205.4956665 107.99092102 C204.63070557 108.86748352 203.76574463 109.74404602 202.87457275 110.64717102 C202.39971436 111.13161682 201.92485596 111.61606262 201.43560791 112.1151886 C200.10910143 113.46543922 198.77346833 114.80670727 197.43707275 116.14717102 C196.88922119 116.80072571 196.34136963 117.4542804 195.7769165 118.12763977 C191.91094786 122.6327819 187.09801901 125.23402941 181.93707275 128.02217102 C181.2124585 128.41622131 180.48784424 128.81027161 179.74127197 129.21626282 C175.24437006 131.54138293 171.48795889 132.73512505 166.43707275 133.14717102 C166.76707275 132.63154602 167.09707275 132.11592102 167.43707275 131.58467102 C168.75718152 128.3669059 168.5694938 125.59011822 168.43707275 122.14717102 C167.85780029 121.87493713 167.27852783 121.60270325 166.68170166 121.32221985 C164.44863945 120.15322611 162.54084203 118.85348711 160.52301025 117.34638977 C159.77140625 116.78814514 159.01980225 116.22990051 158.24542236 115.65473938 C157.44241699 115.05411682 156.63941162 114.45349426 155.81207275 113.83467102 C154.09254893 112.55791758 152.37248414 111.28189245 150.6519165 110.00654602 C149.78034912 109.36008118 148.90878174 108.71361633 148.01080322 108.04756165 C144.15225098 105.19848456 140.26624776 102.38825845 136.37457275 99.58467102 C135.63851807 99.05389954 134.90246338 98.52312805 134.144104 97.97627258 C131.15068248 95.81886346 128.15574982 93.66357092 125.15924072 91.51045227 C116.28232758 85.13165059 107.44304174 78.71551899 98.73736572 72.10395813 C95.87451383 69.93695406 93.01693184 67.8558777 89.98394775 65.93232727 C89.143479 65.34322571 88.30301025 64.75412415 87.43707275 64.14717102 C87.43707275 63.48717102 87.43707275 62.82717102 87.43707275 62.14717102 C81.49707275 62.64217102 81.49707275 62.64217102 75.43707275 63.14717102 C73.51885143 67.94272432 73.18701965 70.42886514 73.16363525 75.45967102 C73.14335334 76.87894984 73.1225027 78.29822063 73.10113525 79.71748352 C73.07852765 81.93597751 73.06205437 84.15415296 73.05621338 86.37275696 C73.04666733 88.52730071 73.01288215 90.68044309 72.97613525 92.83467102 C72.96791748 94.11728821 72.95969971 95.3999054 72.95123291 96.72138977 C72.33531396 100.82517645 71.60586479 102.46106561 68.43707275 105.14717102 C65.62273573 105.64269632 63.39687699 105.82307885 60.58551025 105.78388977 C59.42615463 105.79945671 59.42615463 105.79945671 58.24337769 105.81533813 C55.76582801 105.84499012 53.28976675 105.84167698 50.81207275 105.83467102 C47.59054057 105.846653 44.3693589 105.87268547 41.14801025 105.90888977 C40.34733124 105.91780746 39.54665222 105.92672516 38.72171021 105.93591309 C27.32404932 106.13325876 15.44435408 106.87042233 4.56207275 110.45967102 C3.87427734 110.67260803 3.18648193 110.88554504 2.47784424 111.10493469 C-2.92992012 112.82367175 -8.15961749 114.91322925 -13.340271 117.22920227 C-15.56292725 118.14717102 -15.56292725 118.14717102 -17.56292725 118.14717102 C-17.56292725 118.80717102 -17.56292725 119.46717102 -17.56292725 120.14717102 C-19.293396 121.23310852 -19.293396 121.23310852 -21.75042725 122.52217102 C-28.95988403 126.70896604 -34.66961555 132.32133263 -40.56292725 138.14717102 C-41.36859131 138.9283429 -42.17425537 139.70951477 -43.0043335 140.51435852 C-49.83755673 147.579838 -54.57798802 155.96580453 -59.46893311 164.4264679 C-60.56292725 166.14717102 -60.56292725 166.14717102 -62.56292725 168.14717102 C-62.68021999 152.76027777 -62.76813871 137.3734184 -62.82198811 121.98618221 C-62.84766653 114.8400666 -62.88261581 107.69423029 -62.94012451 100.54829407 C-62.99028017 94.31301163 -63.02229337 88.07793165 -63.03336972 81.84245306 C-63.0398349 78.54689267 -63.05751367 75.25203928 -63.09157753 71.95663261 C-63.31295035 49.63860231 -61.21500365 33.27025923 -45.25042725 16.33467102 C-32.4396586 4.26718929 -17.33429826 0.05810368 0 0 Z " fill="#20D99F" transform="translate(65.56292724609375,1.8528289794921875)"/>
<path d="M0 0 C93.72 0 187.44 0 284 0 C284 93.39 284 186.78 284 283 C265.85 283 247.7 283 229 283 C229 282.34 229 281.68 229 281 C229.556875 280.96261719 230.11375 280.92523438 230.6875 280.88671875 C244.68531306 279.68082607 256.38410966 272.05297627 266 262 C278.15040253 247.30193242 281.46030089 231.38442753 281.40405273 212.83300781 C281.40976528 211.12175046 281.41673294 209.41049691 281.42485046 207.69924927 C281.44270277 203.07915058 281.44162807 198.45924265 281.43590808 193.83911991 C281.43280362 189.96782673 281.43892284 186.09656952 281.44494683 182.22528148 C281.45896547 173.08309954 281.45745396 163.9410111 281.44604492 154.79882812 C281.43457611 145.40174931 281.44862468 136.00495631 281.4754414 126.60791516 C281.49767662 118.5098411 281.50421794 110.41185623 281.49836498 102.31375384 C281.49501168 97.49050471 281.49730094 92.66743855 281.51461601 87.84421539 C281.53020754 83.30334588 281.52599591 78.76289576 281.50731087 74.22204208 C281.50365798 72.56740009 281.50663554 70.91272618 281.51719666 69.25811386 C281.62791476 50.45808852 277.64932865 34.3566421 264.36328125 20.2890625 C250.29545545 6.66303619 235.87482746 2.37336003 216.671875 2.51416016 C214.95560416 2.5120099 213.23933476 2.5081257 211.52307129 2.50265503 C206.89487875 2.49302542 202.26707664 2.50818502 197.63893127 2.52856112 C192.77589422 2.54623846 187.91286732 2.54260495 183.04980469 2.5418396 C174.886002 2.54370798 166.7223487 2.56100848 158.55859375 2.58837891 C149.1450309 2.61982465 139.73163145 2.63037477 130.31801987 2.6289078 C120.25992423 2.62755254 110.20189084 2.64145841 100.14381409 2.65980101 C97.26136027 2.66404577 94.37891661 2.66548092 91.49645996 2.66627884 C86.95238867 2.66830121 82.40845228 2.68061971 77.86442566 2.70061111 C76.20530525 2.70640789 74.54616931 2.70892277 72.88703918 2.70775604 C51.98140325 2.69862494 35.03014312 5.69214468 19.25 20.3125 C3.51991994 37.05863787 3.28376453 55.60353434 3.51171875 77.27734375 C3.52106024 79.90148745 3.52817003 82.52563995 3.53315735 85.14979553 C3.54858275 91.31189145 3.58945424 97.47353392 3.6399048 103.63543183 C3.69615481 110.6609745 3.7233735 117.68654098 3.74838197 124.71225345 C3.80038319 139.14173419 3.88810048 153.57086073 4 168 C4.59893066 166.98389648 5.19786133 165.96779297 5.81494141 164.92089844 C6.61862989 163.56694733 7.42251402 162.21311235 8.2265625 160.859375 C8.6191626 160.19212402 9.0117627 159.52487305 9.41625977 158.83740234 C18.0422287 144.35144835 30.92748359 129.97956751 46 122 C46.66 122 47.32 122 48 122 C48 121.34 48 120.68 48 120 C53.69675972 116.98521994 59.27973452 114.75364031 65.4375 112.875 C66.23220703 112.62363281 67.02691406 112.37226562 67.84570312 112.11328125 C80.62481466 108.14125472 92.90254175 107.01079554 106.2578125 106.82421875 C107.46277374 106.80610641 107.46277374 106.80610641 108.69207764 106.78762817 C112.02130803 106.73927595 115.35013013 106.69157281 118.6796875 106.67407227 C121.14382884 106.65867138 123.60654581 106.61860853 126.0703125 106.57421875 C126.82337677 106.57612717 127.57644104 106.57803558 128.35232544 106.58000183 C131.4721855 106.5063534 133.49578516 106.40562116 135.97021484 104.41503906 C137.37804268 101.11341911 137.38650049 98.37260914 137.40625 94.78515625 C137.42250427 93.74602333 137.42250427 93.74602333 137.43908691 92.68589783 C137.47326894 90.47800317 137.48892205 88.27062411 137.5 86.0625 C137.51461138 83.15705939 137.54837058 80.2527614 137.59375 77.34765625 C137.60083984 76.05867432 137.60792969 74.76969238 137.61523438 73.44165039 C138.0230255 69.79404154 138.79499639 67.89928359 141 65 C143.52475462 63.73762269 145.31200466 63.90143596 148.125 63.9375 C149.03507813 63.94652344 149.94515625 63.95554688 150.8828125 63.96484375 C151.58148438 63.97644531 152.28015625 63.98804688 153 64 C153 64.66 153 65.32 153 66 C153.53496094 66.24234375 154.06992188 66.4846875 154.62109375 66.734375 C157.61855043 68.32908102 160.31863936 70.26302567 163.0625 72.25 C163.66610352 72.68401123 164.26970703 73.11802246 164.89160156 73.56518555 C170.85677506 77.86794595 176.77012505 82.24131332 182.68554688 86.61206055 C191.0763244 92.80736272 199.53503866 98.90667949 208 105 C211.20917464 107.31133495 214.41729179 109.62413052 217.625 111.9375 C218.34695557 112.45707275 219.06891113 112.97664551 219.81274414 113.51196289 C221.19349322 114.50770003 222.57183121 115.50679072 223.94750977 116.50952148 C225.37495113 117.54610166 226.81104261 118.57083131 228.25366211 119.58618164 C228.97561768 120.1043042 229.69757324 120.62242676 230.44140625 121.15625 C231.09310791 121.61708984 231.74480957 122.07792969 232.41625977 122.55273438 C234 124 234 124 235.3125 127.5625 C234.91707841 131.91213753 233.15973819 133.30336282 230 136 C227.01082308 138.38478163 223.95064833 140.66578819 220.875 142.9375 C219.55363037 143.92049072 219.55363037 143.92049072 218.20556641 144.92333984 C215.47366882 146.95337614 212.73726678 148.97721127 210 151 C208.364559 152.21220676 206.72914139 153.42444506 205.09375 154.63671875 C195.9491733 161.40357367 186.75365851 168.0981452 177.51953125 174.7421875 C174.34250028 177.02853382 171.17466486 179.32702172 168.01171875 181.6328125 C167.19388916 182.22763428 166.37605957 182.82245605 165.53344727 183.43530273 C163.96586171 184.57575499 162.39985719 185.71838465 160.83569336 186.86352539 C159.77620483 187.63297485 159.77620483 187.63297485 158.6953125 188.41796875 C157.7674292 189.09508911 157.7674292 189.09508911 156.82080078 189.78588867 C152.79968129 192.46717417 149.71532895 193.49312126 144.90234375 193.39453125 C143 193 143 193 140.5625 190.625 C138.07014279 186.43783989 137.84667999 184.04966274 137.75390625 179.12890625 C137.7209718 177.73632175 137.68776008 176.34374377 137.65429688 174.95117188 C137.60685885 172.75452103 137.56241782 170.55789745 137.52319336 168.36108398 C137.4834751 166.24174594 137.43193609 164.12294713 137.37890625 162.00390625 C137.3538501 160.73361572 137.32879395 159.4633252 137.30297852 158.15454102 C137.23552786 154.84129662 137.23552786 154.84129662 135 152 C132.3576597 151.68165733 129.95478696 151.55598852 127.30859375 151.56640625 C126.53048843 151.5611644 125.75238312 151.55592255 124.95069885 151.55052185 C123.29209584 151.54408302 121.63344728 151.54546262 119.97485352 151.55395508 C117.4986167 151.56229418 115.02482609 151.53401855 112.54882812 151.50195312 C92.8624346 151.41233373 73.68375038 155.6406211 59.05078125 169.75 C44.61693767 185.58598839 36.51568431 204.34980002 36.7265625 225.859375 C37.50419217 242.13570294 44.603723 256.84047476 56.03515625 268.328125 C63.12761355 274.7197466 70.57334919 278.58600238 80 280 C80 280.66 80 281.32 80 282 C81.98 282 83.96 282 86 282 C86 282.33 86 282.66 86 283 C57.62 283 29.24 283 0 283 C0 189.61 0 96.22 0 0 Z " fill="#FCFDFE" transform="translate(0,0)"/>
<path d="M0 0 C80.76043199 0 80.76043199 0 108.80044317 0.20192909 C113.01344501 0.2317144 117.22646543 0.25865909 121.43948364 0.28601074 C129.2818023 0.33730279 137.12410357 0.39084589 144.96640027 0.4453826 C153.95212059 0.50774726 162.93785891 0.56732094 171.923599 0.62675762 C190.28241962 0.74825057 208.64121716 0.87293188 227 1 C227 1.33 227 1.66 227 2 C225.71012114 2.00496522 225.71012114 2.00496522 224.39418411 2.01003075 C203.43511728 2.09138045 182.47612176 2.18351185 161.51715469 2.28752708 C151.38140612 2.33757095 141.24566529 2.3840146 131.10986328 2.421875 C122.27174268 2.4548974 113.43368374 2.49478471 104.59563136 2.54279006 C99.91938106 2.56795348 95.24317113 2.58976433 90.56687164 2.60334396 C86.15755433 2.61625704 81.74837622 2.63840929 77.33913612 2.66738319 C75.72840959 2.67638721 74.11766068 2.68213224 72.50691032 2.68421364 C51.74803458 2.71581779 34.90778403 5.80551079 19.25 20.3125 C3.36319617 37.22548494 3.29628491 55.9507552 3.546875 77.828125 C3.55876062 80.51237157 3.56855758 83.19654303 3.57550049 85.88079834 C3.59605651 92.18807261 3.64125561 98.49489727 3.69644666 104.80195403 C3.77658025 114.07983549 3.82076244 123.35790707 3.86287308 132.63602829 C3.86913075 134.00659944 3.87539065 135.37717057 3.88165283 136.7477417 C3.88465055 137.41667159 3.88764826 138.08560148 3.89073682 138.77480197 C3.91238646 143.3821362 3.94672041 147.98927419 3.98504639 152.59649658 C4.00145145 154.99434389 4.01783065 157.39219137 4.03417969 159.79003906 C4.05135544 161.43567085 4.05135544 161.43567085 4.06887817 163.11454773 C4.07472931 164.11510696 4.08058044 165.1156662 4.08660889 166.14654541 C4.09402477 167.01659336 4.10144066 167.88664131 4.10908127 168.78305435 C4 171 4 171 3 174 C2.01 173.67 1.02 173.34 0 173 C0 115.91 0 58.82 0 0 Z " fill="#E9FAF5" transform="translate(0,0)"/>
<path d="M0 0 C0.33 0 0.66 0 1 0 C1 41.58 1 83.16 1 126 C0.67 126 0.34 126 0 126 C-0.00423194 125.39554676 -0.00846388 124.79109352 -0.01282406 124.16832352 C-0.11611555 109.46263236 -0.2247511 94.75698741 -0.33933926 80.05138016 C-0.39462419 72.939869 -0.44809839 65.82835283 -0.49731445 58.71679688 C-0.54479451 51.8568216 -0.59731452 44.99689978 -0.65294075 38.13698578 C-0.67335839 35.51668297 -0.69207245 32.89636632 -0.70907402 30.27603912 C-0.73313093 26.61268604 -0.76318405 22.94942844 -0.79467773 19.28613281 C-0.8004332 18.19712677 -0.80618866 17.10812073 -0.81211853 15.9861145 C-0.82190735 14.98774567 -0.83169617 13.98937683 -0.84178162 12.96075439 C-0.84823417 12.09426899 -0.85468672 11.22778358 -0.8613348 10.33504105 C-0.92333425 8.00400522 -0.92333425 8.00400522 -1.5684824 5.83057785 C-2.16034801 3.31977396 -1.30242561 2.14517159 0 0 Z " fill="#148BFE" transform="translate(281,91)"/>
<path d="M0 0 C0.33 0 0.66 0 1 0 C1 4.29 1 8.58 1 13 C0.67 13 0.34 13 0 13 C-0.39222105 11.58800422 -0.76311059 10.17007236 -1.125 8.75 C-1.33382813 7.96109375 -1.54265625 7.1721875 -1.7578125 6.359375 C-2.04314411 3.5796929 -1.44977894 2.34112451 0 0 Z " fill="#1B93F8" transform="translate(281,91)"/>
<path d="M0 0 C2.3125 0.1875 2.3125 0.1875 4 1 C1.06171403 3.50298434 -1.17902761 4.46930939 -5 5 C-2.75 2.4375 -2.75 2.4375 0 0 Z " fill="#3EA6FE" transform="translate(178,173)"/>
</svg>
